<svg width="800" height="800" viewBox="0 0 800 800" fill="none" xmlns="http://www.w3.org/2000/svg">
    <g clip-path="url(#zigzag)" stroke="rgba(255,255,255,0.1)"
            stroke-width="72">
        <path
            d="M-144.381 15.4551L38.4992 -25.6194L177.469 205.858L517.949 174.289L677.181 440.505L886.106 381.556L1031.41 631.301L1347.05 585.566L1519.15 913.876L1760.07 836.528L1855.05 1011.88"
        />
        <path
            d="M-191.285 461.309L65.5948 387.235L198.565 636.712L465.045 605.143L624.278 819.359L833.2 780.41L978.508 1062.15L1294.15 1016.42L1466.25 1344.73L1707.17 1267.38L1802.15 1442.73"
        />
        <path
            d="M-111.962 -427.724L144.918 -468.798L277.888 -226.321L429.368 -257.89L629.6 28.3261L912.524 -47.6227L1057.83 199.122L1373.47 153.387L1545.57 481.697L1786.49 404.349L1881.47 579.7"
        />
        <path
            d="M-214.102 820.468L42.7782 779.393L161.748 986.871L428.228 955.301L587.461 1221.52L796.384 1162.57L941.691 1412.31L1257.33 1366.58L1429.43 1694.89L1670.35 1617.54L1765.33 1792.89"
        />
    </g>
    <defs>
        <clipPath id="zigzag">
            <rect width="800" height="800" fill="transparent" />
        </clipPath>
    </defs>
</svg>